# xmcd
#
# Track frame offsets:
#	150
#	19866
#	41455
#	57879
#	79325
#	95339
#	113685
#	128726
#	145361
#	161044
#	178912
#	193835
#	210422
#	224236
#	240093
#
# Disc length: 3415 seconds
#
# Revision: 1
# Processed by: cddbd v1.5.1PL0 Copyright (c) Steve Scherf et al.
# Submitted via: audiograbber 1.83.01
#
DISCID=d50d550f
DTITLE=Various Artist - NS08
DYEAR=1900
DGENRE=Karaoke
TTITLE0=Reba McEntire - Read My Mind
TTITLE1=Garth Brooks - Wolves
TTITLE2=Gibson Miller Band - Red White and Blue Collar
TTITLE3=Kathy Mattea - Asking Us To Dance
TTITLE4=Sammy Kershaw - Third Rate Romance
TTITLE5=Billy Ray Cyrus - Somebody New
TTITLE6=David Ball - When The Thought Of You Catches Up To me
TTITLE7=Aaron Tippin - Working Man's PHD
TTITLE8=Patty Loveless - The Lonely Side Of Love
TTITLE9=Tracy Lawrence - I See It Now
TTITLE10=Randy Travis - Whisper My Name
TTITLE11=John Michael Montgomery - Kick It Up
TTITLE12=Linda Davis - Love Didn't Do It
TTITLE13=Clay Walker - Dreaming With My Eyes Wide Open
TTITLE14=John and Audrey Wiggins - Has Anybody Seen Amy
EXTD=
EXTT0=
EXTT1=
EXTT2=
EXTT3=
EXTT4=
EXTT5=
EXTT6=
EXTT7=
EXTT8=
EXTT9=
EXTT10=
EXTT11=
EXTT12=
EXTT13=
EXTT14=
PLAYORDER=
